External Loads File
version=1
nRows=62
nColumns=13
Range=5.000000e-03-10 seconds
endheader
time 	forceRightX 	forceRightY 	forceRightZ 	pointRightX 	pointRightY 	pointRightZ 	forceLeftX 	forceLeftY 	forceLeftZ 	pointLeftX 	pointLeftY 	pointLeftZ 		
0.005000 82.293633 208.894099 -0.000000 0.135845 0.281751 -0.125006 -118.733067 144.452627 -0.000000 0.455332 0.366671 -0.366956
0.010000 81.778670 208.992285 -0.000000 0.135729 0.281686 -0.125053 -118.571459 144.758361 -0.000000 0.455293 0.366752 -0.366958
0.015000 81.371027 209.089265 -0.000000 0.135706 0.281618 -0.125064 -118.477281 145.101496 -0.000000 0.455257 0.366828 -0.366965
0.020000 81.160247 209.198125 -0.000000 0.135686 0.281547 -0.125018 -118.486937 145.491624 -0.000000 0.455156 0.366897 -0.366982
0.025000 81.175968 209.352275 -0.000000 0.135613 0.281728 -0.124868 -118.652227 145.906464 -0.000000 0.454936 0.367286 -0.367044
0.030000 81.608912 209.496040 -0.000000 0.135587 0.281706 -0.124829 -118.842426 146.442353 -0.000000 0.454993 0.367339 -0.367000
0.035000 82.223854 209.706953 -0.000000 0.135556 0.281640 -0.124821 -119.167178 146.982034 -0.000000 0.454954 0.367440 -0.366982
0.040000 82.975612 209.969870 -0.000000 0.135535 0.281563 -0.124812 -119.584741 147.528558 -0.000000 0.454916 0.367575 -0.366983
0.045000 83.855858 210.246251 -0.000000 0.135503 0.281502 -0.124806 -120.027015 148.112016 -0.000000 0.454880 0.367626 -0.366970
0.050000 84.700226 210.552668 -0.000000 0.135487 0.281462 -0.124806 -120.542312 148.683205 -0.000000 0.454859 0.367705 -0.366971
0.055000 85.434898 210.870928 -0.000000 0.135471 0.281401 -0.124809 -121.121932 149.252532 -0.000000 0.454821 0.367755 -0.366968
0.060000 85.991625 211.194376 -0.000000 0.135447 0.281335 -0.124823 -121.748781 149.825079 -0.000000 0.454793 0.367822 -0.366976
0.065000 86.355167 211.516662 -0.000000 0.135448 0.281281 -0.124809 -122.371094 150.406601 -0.000000 0.454772 0.367900 -0.366984
0.070000 86.564968 211.835676 -0.000000 0.135446 0.281222 -0.124808 -122.943541 150.996970 -0.000000 0.454749 0.367955 -0.366988
0.075000 86.677805 212.158809 -0.000000 0.135437 0.281168 -0.124798 -123.468673 151.585970 -0.000000 0.454735 0.368004 -0.366997
0.080000 86.722742 212.490246 -0.000000 0.135464 0.281126 -0.124793 -123.974614 152.160177 -0.000000 0.454733 0.368061 -0.367000
0.085000 86.683484 212.822602 -0.000000 0.135471 0.281071 -0.124781 -124.475479 152.708385 -0.000000 0.454723 0.368123 -0.366998
0.090000 86.589119 213.125298 -0.000000 0.135499 0.281048 -0.124796 -124.924709 153.258447 -0.000000 0.454728 0.368155 -0.367007
0.095000 86.413447 213.416895 -0.000000 0.135495 0.281012 -0.124795 -125.343305 153.795410 -0.000000 0.454736 0.368192 -0.367001
0.100000 86.228238 213.698726 -0.000000 0.135518 0.280975 -0.124776 -125.726167 154.348011 -0.000000 0.454752 0.368199 -0.367020
0.105000 86.095048 213.973787 -0.000000 0.135526 0.280972 -0.124796 -126.082121 154.934994 -0.000000 0.454784 0.368196 -0.367012
0.110000 85.978107 214.273257 -0.000000 0.135548 0.280947 -0.124810 -126.466004 155.516649 -0.000000 0.454797 0.368207 -0.367021
0.115000 85.969310 214.572747 -0.000000 0.135560 0.280967 -0.124799 -126.815198 156.130806 -0.000000 0.454825 0.368191 -0.367017
0.120000 86.009655 214.903115 -0.000000 0.135575 0.280975 -0.124783 -127.152237 156.741803 -0.000000 0.454852 0.368168 -0.367012
0.125000 86.073033 215.272037 -0.000000 0.135568 0.280982 -0.124794 -127.456559 157.355378 -0.000000 0.454883 0.368147 -0.367005
0.130000 86.140415 215.680851 -0.000000 0.135575 0.281017 -0.124770 -127.711252 157.990866 -0.000000 0.454902 0.368103 -0.367016
0.135000 86.174592 216.143980 -0.000000 0.135576 0.281043 -0.124789 -127.949787 158.645540 -0.000000 0.454932 0.368036 -0.367023
0.140000 86.183101 216.665038 -0.000000 0.135570 0.281092 -0.124776 -128.210198 159.320022 -0.000000 0.454954 0.367978 -0.367035
0.145000 86.187604 217.250444 -0.000000 0.135565 0.281136 -0.124781 -128.540974 160.001400 -0.000000 0.454971 0.367921 -0.367032
0.150000 86.263192 217.897487 -0.000000 0.135553 0.281191 -0.124797 -128.951470 160.698185 -0.000000 0.454996 0.367854 -0.367038
0.155000 86.467735 218.615076 -0.000000 0.135532 0.281261 -0.124787 -129.436958 161.416702 -0.000000 0.455022 0.367769 -0.367068
0.160000 86.795250 219.421283 -0.000000 0.135519 0.281321 -0.124806 -129.993381 162.145392 -0.000000 0.455035 0.367686 -0.367056
0.165000 87.276493 220.285078 -0.000000 0.135500 0.281393 -0.124807 -130.548499 162.911501 -0.000000 0.455051 0.367573 -0.367066
0.170000 87.837497 221.185896 -0.000000 0.135475 0.281456 -0.124811 -131.089863 163.687736 -0.000000 0.455054 0.367454 -0.367070
0.175000 88.420457 222.088706 -0.000000 0.135459 0.281536 -0.124807 -131.597384 164.456805 -0.000000 0.455070 0.367366 -0.367076
0.180000 88.975990 222.964835 -0.000000 0.135553 0.281638 -0.124763 -132.061377 165.202557 -0.000000 0.455094 0.367288 -0.367065
0.185000 89.491788 223.783920 -0.000000 0.135533 0.281727 -0.124770 -132.460708 165.923996 -0.000000 0.455094 0.367202 -0.367069
0.190000 89.931533 224.535788 -0.000000 0.135479 0.281808 -0.124761 -132.799980 166.601332 -0.000000 0.455087 0.367118 -0.367074
0.195000 90.281036 225.204890 -0.000000 0.135471 0.281893 -0.124765 -133.073199 167.233161 -0.000000 0.455086 0.367026 -0.367098
0.200000 90.531807 225.769099 -0.000000 0.135429 0.281975 -0.124735 -133.278401 167.833191 -0.000000 0.455087 0.366912 -0.367086
0.205000 90.610888 226.232747 -0.000000 0.135399 0.282055 -0.124746 -133.464573 168.381260 -0.000000 0.455105 0.366837 -0.367070
0.210000 90.579037 226.561731 -0.000000 0.135285 0.282157 -0.124757 -133.575263 168.922362 -0.000000 0.455125 0.366738 -0.367099
0.215000 90.379854 226.795174 -0.000000 0.135263 0.282242 -0.124754 -133.644361 169.403484 -0.000000 0.455140 0.366649 -0.367102
0.220000 90.103139 226.938240 -0.000000 0.135240 0.282311 -0.124759 -133.616300 169.835320 -0.000000 0.455160 0.366554 -0.367103
0.225000 89.849498 227.000811 -0.000000 0.135199 0.282425 -0.124719 -133.447518 170.234927 -0.000000 0.455177 0.366468 -0.367092
0.230000 89.644910 227.016555 -0.000000 0.135185 0.282524 -0.124709 -133.173191 170.585905 -0.000000 0.455216 0.366378 -0.367101
0.235000 89.546155 226.993857 -0.000000 0.135187 0.282651 -0.124717 -132.830206 170.899411 -0.000000 0.455243 0.366286 -0.367081
0.240000 89.502854 226.962744 -0.000000 0.135154 0.282726 -0.124713 -132.533225 171.139832 -0.000000 0.455265 0.366208 -0.367077
0.245000 89.527342 226.906793 -0.000000 0.135165 0.282820 -0.124705 -132.311701 171.329660 -0.000000 0.455302 0.366127 -0.367073
0.250000 89.539941 226.842603 -0.000000 0.135162 0.282897 -0.124691 -132.224654 171.445758 -0.000000 0.455318 0.366060 -0.367059
0.255000 89.529679 226.774746 -0.000000 0.135160 0.282959 -0.124703 -132.254669 171.498141 -0.000000 0.455346 0.366000 -0.367050
0.260000 89.488003 226.713548 -0.000000 0.135145 0.283003 -0.124712 -132.362373 171.497168 -0.000000 0.455359 0.365948 -0.367047
0.265000 89.436297 226.648196 -0.000000 0.135162 0.283060 -0.124697 -132.481210 171.476130 -0.000000 0.455386 0.365901 -0.367054
0.270000 89.338623 226.581547 -0.000000 0.135173 0.283097 -0.124691 -132.609401 171.431937 -0.000000 0.455415 0.365881 -0.367044
0.275000 89.215116 226.493821 -0.000000 0.135193 0.283118 -0.124686 -132.723352 171.386959 -0.000000 0.455438 0.365852 -0.367049
0.280000 89.084157 226.377434 -0.000000 0.135201 0.283156 -0.124663 -132.810739 171.354553 -0.000000 0.455451 0.365832 -0.367045
0.285000 88.942705 226.254337 -0.000000 0.135207 0.283158 -0.124670 -132.886963 171.324963 -0.000000 0.455469 0.365812 -0.367054
0.290000 88.841198 226.139571 -0.000000 0.135237 0.283172 -0.124681 -132.929459 171.316797 -0.000000 0.455489 0.365800 -0.367038
0.295000 88.780666 226.064426 -0.000000 0.135263 0.283183 -0.124688 -132.948038 171.326027 -0.000000 0.455503 0.365803 -0.367036
0.300000 88.750350 226.050626 -0.000000 0.135267 0.283152 -0.124683 -132.966173 171.347581 -0.000000 0.455519 0.365798 -0.367042
0.305000 88.759720 226.096794 -0.000000 0.135284 0.283155 -0.124670 -132.989915 171.392644 -0.000000 0.455520 0.365812 -0.367039
0.310000 88.775648 226.204802 -0.000000 0.135306 0.283144 -0.124675 -133.032783 171.450978 -0.000000 0.455528 0.365832 -0.367041
